<svg width="625" height="110" xmlns="http://www.w3.org/2000/svg"><style>line,path,rect{stroke:#000;stroke-width:2}.red{fill:#f99}.yellow{fill:#ff9}.green{fill:#9f9}.teal{fill:#9ff}.blue{fill:#99f}.purple{fill:#f9f}.grey{fill:rgba(0,0,0,.5)}.l-red{stroke:#b31919}.l-yellow{stroke:#b3b319}.l-green{stroke:#19b319}.l-teal{stroke:#19b3b3}.l-blue{stroke:#1919b3}.l-purple{stroke:#b319b3}text{text-anchor:middle;font-family:Helvetica,Arial,sans-serif;font-size:18px;fill:#000}.no-stroke{stroke-width:0}</style><path class="l-blue" d="M84 31h34"/><path class="l-green" d="M84 55h34"/><path class="l-red" d="M84 79h34"/><path class="blue" d="M12 19h72v24H12z"/><path class="green" d="M12 43h72v24H12z"/><path class="red" d="M12 67h72v24H12z"/><text y="23" x="10" transform="translate(10 15)">1</text><text y="23" x="24" transform="translate(10 15)">1</text><text y="23" x="38" transform="translate(10 15)">1</text><text y="23" x="52" transform="translate(10 15)">0</text><text y="23" x="66" transform="translate(10 15)">0</text><text y="47" x="10" transform="translate(10 15)">0</text><text y="47" x="24" transform="translate(10 15)">1</text><text y="47" x="38" transform="translate(10 15)">0</text><text y="47" x="52" transform="translate(10 15)">1</text><text y="47" x="66" transform="translate(10 15)">1</text><text y="71" x="10" transform="translate(10 15)">0</text><text y="71" x="24" transform="translate(10 15)">0</text><text y="71" x="38" transform="translate(10 15)">1</text><text y="71" x="52" transform="translate(10 15)">0</text><text y="71" x="66" transform="translate(10 15)">1</text><g><path class="l-blue" d="M190 31h34"/><path class="l-green" d="M190 55l34 24"/><path class="l-red" d="M190 79l34-24"/><path class="blue" d="M118 19h72v24h-72z"/><path class="green" d="M118 43h72v24h-72z"/><path class="red" d="M118 67h72v24h-72z"/><text y="23" x="10" transform="translate(116 15)">1</text><text y="23" x="24" transform="translate(116 15)">1</text><text y="23" x="38" transform="translate(116 15)">1</text><text y="23" x="52" transform="translate(116 15)">0</text><text y="23" x="66" transform="translate(116 15)">0</text><text y="47" x="10" transform="translate(116 15)">0</text><text y="47" x="24" transform="translate(116 15)">1</text><text y="47" x="38" transform="translate(116 15)">0</text><text y="47" x="52" transform="translate(116 15)">1</text><text y="47" x="66" transform="translate(116 15)">1</text><text y="71" x="10" transform="translate(116 15)">0</text><text y="71" x="24" transform="translate(116 15)">0</text><text y="71" x="38" transform="translate(116 15)">1</text><text y="71" x="52" transform="translate(116 15)">0</text><text y="71" x="66" transform="translate(116 15)">1</text><path d="M177 9l5 8 5-8" class="no-stroke"/><path d="M177 101l5-8 5 8" class="no-stroke"/></g><g><path class="l-blue" d="M296 31l34 24"/><path class="l-red" d="M296 55l34 24"/><path class="l-green" d="M296 79l34-48"/><path class="blue" d="M224 19h72v24h-72z"/><path class="red" d="M224 43h72v24h-72z"/><path class="green" d="M224 67h72v24h-72z"/><text y="23" x="10" transform="translate(222 15)">1</text><text y="23" x="24" transform="translate(222 15)">1</text><text y="23" x="38" transform="translate(222 15)">1</text><text y="23" x="52" transform="translate(222 15)">0</text><text y="23" x="66" transform="translate(222 15)">0</text><text y="47" x="10" transform="translate(222 15)">0</text><text y="47" x="24" transform="translate(222 15)">0</text><text y="47" x="38" transform="translate(222 15)">1</text><text y="47" x="52" transform="translate(222 15)">0</text><text y="47" x="66" transform="translate(222 15)">1</text><text y="71" x="10" transform="translate(222 15)">0</text><text y="71" x="24" transform="translate(222 15)">1</text><text y="71" x="38" transform="translate(222 15)">0</text><text y="71" x="52" transform="translate(222 15)">1</text><text y="71" x="66" transform="translate(222 15)">1</text><path d="M269 9l5 8 5-8" class="no-stroke"/><path d="M269 101l5-8 5 8" class="no-stroke"/></g><g><path class="l-green" d="M402 31l34 24"/><path class="l-blue" d="M402 55l34 24"/><path class="l-red" d="M402 79l34-48"/><path class="green" d="M330 19h72v24h-72z"/><path class="blue" d="M330 43h72v24h-72z"/><path class="red" d="M330 67h72v24h-72z"/><text y="23" x="10" transform="translate(328 15)">0</text><text y="23" x="24" transform="translate(328 15)">1</text><text y="23" x="38" transform="translate(328 15)">0</text><text y="23" x="52" transform="translate(328 15)">1</text><text y="23" x="66" transform="translate(328 15)">1</text><text y="47" x="10" transform="translate(328 15)">1</text><text y="47" x="24" transform="translate(328 15)">1</text><text y="47" x="38" transform="translate(328 15)">1</text><text y="47" x="52" transform="translate(328 15)">0</text><text y="47" x="66" transform="translate(328 15)">0</text><text y="71" x="10" transform="translate(328 15)">0</text><text y="71" x="24" transform="translate(328 15)">0</text><text y="71" x="38" transform="translate(328 15)">1</text><text y="71" x="52" transform="translate(328 15)">0</text><text y="71" x="66" transform="translate(328 15)">1</text><path d="M361 9l5 8 5-8" class="no-stroke"/><path d="M361 101l5-8 5 8" class="no-stroke"/></g><g><path class="l-red" d="M508 31h34"/><path class="l-green" d="M508 55h34"/><path class="l-blue" d="M508 79h34"/><path class="red" d="M436 19h72v24h-72z"/><path class="green" d="M436 43h72v24h-72z"/><path class="blue" d="M436 67h72v24h-72z"/><text y="23" x="10" transform="translate(434 15)">0</text><text y="23" x="24" transform="translate(434 15)">0</text><text y="23" x="38" transform="translate(434 15)">1</text><text y="23" x="52" transform="translate(434 15)">0</text><text y="23" x="66" transform="translate(434 15)">1</text><text y="47" x="10" transform="translate(434 15)">0</text><text y="47" x="24" transform="translate(434 15)">1</text><text y="47" x="38" transform="translate(434 15)">0</text><text y="47" x="52" transform="translate(434 15)">1</text><text y="47" x="66" transform="translate(434 15)">1</text><text y="71" x="10" transform="translate(434 15)">1</text><text y="71" x="24" transform="translate(434 15)">1</text><text y="71" x="38" transform="translate(434 15)">1</text><text y="71" x="52" transform="translate(434 15)">0</text><text y="71" x="66" transform="translate(434 15)">0</text><path d="M453 9l5 8 5-8" class="no-stroke"/><path d="M453 101l5-8 5 8" class="no-stroke"/></g><g><path class="red" d="M542 19h72v24h-72z"/><path class="green" d="M542 43h72v24h-72z"/><path class="blue" d="M542 67h72v24h-72z"/><text y="23" x="10" transform="translate(540 15)">0</text><text y="23" x="24" transform="translate(540 15)">0</text><text y="23" x="38" transform="translate(540 15)">1</text><text y="23" x="52" transform="translate(540 15)">0</text><text y="23" x="66" transform="translate(540 15)">1</text><text y="47" x="10" transform="translate(540 15)">0</text><text y="47" x="24" transform="translate(540 15)">1</text><text y="47" x="38" transform="translate(540 15)">0</text><text y="47" x="52" transform="translate(540 15)">1</text><text y="47" x="66" transform="translate(540 15)">1</text><text y="71" x="10" transform="translate(540 15)">1</text><text y="71" x="24" transform="translate(540 15)">1</text><text y="71" x="38" transform="translate(540 15)">1</text><text y="71" x="52" transform="translate(540 15)">0</text><text y="71" x="66" transform="translate(540 15)">0</text><path d="M545 9l5 8 5-8" class="no-stroke"/><path d="M545 101l5-8 5 8" class="no-stroke"/></g></svg>